<svg width="51" height="49" viewBox="0 0 51 49" fill="none" xmlns="http://www.w3.org/2000/svg">
<path d="M18.2569 16.2062L16.2621 26.2362H13.5029L13.6893 25.2481C12.8566 26.0063 11.8312 26.3854 10.6132 26.3854C9.83017 26.3854 9.1093 26.2051 8.45058 25.8447C7.79185 25.4843 7.26363 24.9685 6.8659 24.2973C6.48061 23.6137 6.28796 22.8121 6.28796 21.8923C6.28796 20.7862 6.53033 19.7919 7.01505 18.9094C7.5122 18.0146 8.18336 17.3185 9.02852 16.8214C9.87367 16.3118 10.8058 16.057 11.825 16.057C13.3662 16.057 14.4537 16.5604 15.0876 17.5671L15.3486 16.2062H18.2569ZM11.5081 23.9804C12.0798 23.9804 12.5894 23.8437 13.0368 23.5702C13.4842 23.2844 13.8322 22.8929 14.0808 22.3957C14.3294 21.8986 14.4537 21.3268 14.4537 20.6805C14.4537 19.997 14.2486 19.4563 13.8385 19.0586C13.4407 18.6609 12.8814 18.462 12.1606 18.462C11.5888 18.462 11.0793 18.6049 10.6318 18.8908C10.1844 19.1642 9.83639 19.5495 9.58781 20.0467C9.33924 20.5438 9.21495 21.1155 9.21495 21.7618C9.21495 22.4454 9.41381 22.9861 9.81153 23.3838C10.2217 23.7815 10.7872 23.9804 11.5081 23.9804Z" fill="url(#paint0_linear)"/>
<path d="M21.8631 26.3854C20.993 26.3854 20.1665 26.2921 19.3835 26.1057C18.6129 25.9069 18.0101 25.6521 17.5751 25.3413L18.6937 23.2347C19.1287 23.5205 19.6569 23.7505 20.2784 23.9245C20.9122 24.0985 21.5461 24.1855 22.18 24.1855C22.8387 24.1855 23.3297 24.1047 23.6528 23.9431C23.9759 23.7691 24.1375 23.5267 24.1375 23.216C24.1375 22.9674 23.9946 22.7872 23.7087 22.6754C23.4229 22.5635 22.963 22.4454 22.3291 22.3211C21.6083 22.1844 21.0117 22.0353 20.5394 21.8737C20.0795 21.7121 19.6756 21.4511 19.3276 21.0907C18.992 20.7178 18.8242 20.2145 18.8242 19.5806C18.8242 18.4744 19.2841 17.6106 20.2038 16.9892C21.136 16.3677 22.354 16.057 23.8579 16.057C24.5539 16.057 25.2313 16.1316 25.89 16.2807C26.5487 16.4299 27.108 16.635 27.5679 16.896L26.5239 19.0213C25.7036 18.5117 24.7155 18.2569 23.5596 18.2569C22.9257 18.2569 22.441 18.3501 22.1054 18.5366C21.7823 18.723 21.6207 18.9591 21.6207 19.245C21.6207 19.506 21.7636 19.6987 22.0495 19.823C22.3353 19.9348 22.8139 20.0591 23.485 20.1958C24.1935 20.3325 24.7714 20.4817 25.2188 20.6433C25.6787 20.7924 26.0764 21.0472 26.412 21.4076C26.7476 21.7681 26.9154 22.259 26.9154 22.8804C26.9154 23.999 26.4431 24.8628 25.4985 25.4718C24.5663 26.0809 23.3545 26.3854 21.8631 26.3854Z" fill="url(#paint1_linear)"/>
<path d="M34.8434 20.5687L38.2924 26.2362H34.918L32.5316 22.3398L30.7605 23.8126L30.2758 26.2362H27.3675L30.1267 12.403H33.035L31.4876 20.1399L36.2976 16.2062H40.0821L34.8434 20.5687Z" fill="url(#paint2_linear)"/>
<path d="M2 10.3894V5.72864C2 3.66937 3.66937 2 5.72864 2H45.8115C47.8708 2 49.5402 3.66937 49.5402 5.72864V31.8291C49.5402 33.8884 47.8708 35.5578 45.8115 35.5578H39.2864L41.4671 45.7343C41.6577 46.6238 40.5918 47.2316 39.9234 46.6146L29.9648 37.4221H5.72864C3.66937 37.4221 2 35.7527 2 33.6935V31.8291" stroke="url(#paint3_linear)" stroke-width="2.79648"/>
<defs>
<linearGradient id="paint0_linear" x1="9.42289" y1="12.4036" x2="36.0821" y2="26.7086" gradientUnits="userSpaceOnUse">
<stop stop-color="#2F80ED"/>
<stop offset="1" stop-color="#56CCF2"/>
</linearGradient>
<linearGradient id="paint1_linear" x1="9.42289" y1="12.4036" x2="36.0821" y2="26.7086" gradientUnits="userSpaceOnUse">
<stop stop-color="#2F80ED"/>
<stop offset="1" stop-color="#56CCF2"/>
</linearGradient>
<linearGradient id="paint2_linear" x1="9.42289" y1="12.4036" x2="36.0821" y2="26.7086" gradientUnits="userSpaceOnUse">
<stop stop-color="#2F80ED"/>
<stop offset="1" stop-color="#56CCF2"/>
</linearGradient>
<linearGradient id="paint3_linear" x1="2" y1="2" x2="41.1507" y2="50.4723" gradientUnits="userSpaceOnUse">
<stop stop-color="#2F80ED"/>
<stop offset="1" stop-color="#56CCF2"/>
</linearGradient>
</defs>
</svg>
